<mxfile host="app.diagrams.net" agent="Mozilla/5.0 (Windows NT 10.0; Win64; x64) AppleWebKit/537.36 (KHTML, like Gecko) Chrome/132.0.0.0 Safari/537.36" version="26.0.16">
  <diagram name="페이지-1" id="dix2KKd-qapJ_9TMrCq0">
    <mxGraphModel dx="478" dy="257" grid="1" gridSize="10" guides="1" tooltips="1" connect="1" arrows="1" fold="1" page="1" pageScale="1" pageWidth="827" pageHeight="1169" math="0" shadow="0">
      <root>
        <mxCell id="0" />
        <mxCell id="1" parent="0" />
        <mxCell id="NMMC-JfbK1yKJFePmzdw-1" value="데이터 일관성&lt;div&gt;(consistency)&lt;/div&gt;" style="ellipse;whiteSpace=wrap;html=1;aspect=fixed;fillColor=none;" vertex="1" parent="1">
          <mxGeometry x="350" y="181" width="170" height="170" as="geometry" />
        </mxCell>
        <mxCell id="NMMC-JfbK1yKJFePmzdw-2" value="가용성&lt;div&gt;(availability)&lt;/div&gt;" style="ellipse;whiteSpace=wrap;html=1;aspect=fixed;fillColor=none;" vertex="1" parent="1">
          <mxGeometry x="272" y="310" width="170" height="170" as="geometry" />
        </mxCell>
        <mxCell id="NMMC-JfbK1yKJFePmzdw-3" value="파티션 감내&lt;br&gt;(partition tolerance)" style="ellipse;whiteSpace=wrap;html=1;aspect=fixed;fillColor=none;" vertex="1" parent="1">
          <mxGeometry x="418" y="310" width="170" height="170" as="geometry" />
        </mxCell>
        <mxCell id="NMMC-JfbK1yKJFePmzdw-4" value="CA" style="text;html=1;align=center;verticalAlign=middle;whiteSpace=wrap;rounded=0;" vertex="1" parent="1">
          <mxGeometry x="366" y="316" width="60" height="30" as="geometry" />
        </mxCell>
        <mxCell id="NMMC-JfbK1yKJFePmzdw-5" value="CP" style="text;html=1;align=center;verticalAlign=middle;whiteSpace=wrap;rounded=0;" vertex="1" parent="1">
          <mxGeometry x="442" y="316" width="60" height="30" as="geometry" />
        </mxCell>
        <mxCell id="NMMC-JfbK1yKJFePmzdw-6" value="AP" style="text;html=1;align=center;verticalAlign=middle;whiteSpace=wrap;rounded=0;" vertex="1" parent="1">
          <mxGeometry x="400" y="380" width="60" height="30" as="geometry" />
        </mxCell>
      </root>
    </mxGraphModel>
  </diagram>
</mxfile>
